<svg xmlns="http://www.w3.org/2000/svg" width="18" height="20" viewBox="0 0 18 20">
  <path id="Icon_metro-attachment" data-name="Icon metro-attachment" d="M16.268,8.316l-1.3-1.268L8.438,13.39a2.638,2.638,0,0,0,0,3.806,2.825,2.825,0,0,0,3.915,0l7.83-7.611a4.4,4.4,0,0,0,0-6.342,4.707,4.707,0,0,0-6.525,0L5.437,11.234l-.018.017a6.132,6.132,0,0,0,0,8.846,6.567,6.567,0,0,0,9.1,0l.016-.017h0l5.612-5.455-1.306-1.268-5.612,5.454-.017.016a4.689,4.689,0,0,1-6.49,0,4.378,4.378,0,0,1,0-6.308l.018-.017h0L14.963,4.51a2.828,2.828,0,0,1,3.915,0,2.641,2.641,0,0,1,0,3.805l-7.83,7.611a.942.942,0,0,1-1.305,0,.88.88,0,0,1,0-1.268l6.525-6.343Z" transform="translate(-3.535 -1.928)" fill="#bec2cb"/>
</svg>
