<svg xmlns="http://www.w3.org/2000/svg" width="22.239" height="19.404" viewBox="0 0 22.239 19.404">
  <path id="Reply_to_question" data-name="Reply to question" d="M147.251,117.6h-9.063a6.585,6.585,0,0,0-6.588,6.588V126.3a6.61,6.61,0,0,0,6.227,6.588,5.975,5.975,0,0,1-.89,1.89,1.392,1.392,0,0,0-.083,1.529,1.344,1.344,0,0,0,1.2.695h.139c2.141-.222,5.838-1.028,6.978-4.114h2.085a6.585,6.585,0,0,0,6.588-6.588v-2.113a6.585,6.585,0,0,0-6.588-6.588Zm4.921,8.7a4.912,4.912,0,0,1-4.921,4.921h-2.28a1.4,1.4,0,0,0-1.334.973c-.667,2.085-3.225,2.808-5.032,3.058a8.135,8.135,0,0,0,.917-2.28,1.4,1.4,0,0,0-.25-1.223,1.369,1.369,0,0,0-1.112-.556,4.864,4.864,0,0,1-4.893-4.893v-2.113a4.912,4.912,0,0,1,4.921-4.921h9.063a4.912,4.912,0,0,1,4.921,4.921Z" transform="translate(-131.6 -117.6)" fill="#5f676f"/>
</svg>
