<svg xmlns="http://www.w3.org/2000/svg" width="20.012" height="20.458" viewBox="0 0 20.012 20.458">
  <path id="Like" d="M3.284,12.442v9.442a1.574,1.574,0,0,0,1.574,1.574H8.005a1.56,1.56,0,0,0,1.042-.4,2.346,2.346,0,0,0,1.319.4h8.262a3.947,3.947,0,0,0,3.9-3.414l.735-5.508a3.934,3.934,0,0,0-3.9-4.454h-2.7V6.934A3.939,3.939,0,0,0,12.726,3h-.787a1.574,1.574,0,0,0-1.574,1.574V9.295a1.574,1.574,0,0,1-1.574,1.574H4.858a1.574,1.574,0,0,0-1.574,1.574Zm8.655-3.147V4.574h.787a2.361,2.361,0,0,1,2.361,2.361v3.934a.787.787,0,0,0,.787.787h3.487A2.361,2.361,0,0,1,21.7,14.331l-.734,5.508a2.368,2.368,0,0,1-2.34,2.046H10.364a.787.787,0,0,1-.787-.787V12.343a3.154,3.154,0,0,0,2.362-3.048ZM4.858,12.442H8.005v9.442H4.858Z" transform="translate(-3.284 -3)" fill="#5f676f"/>
</svg>
