<svg xmlns="http://www.w3.org/2000/svg" width="12.496" height="13.79" viewBox="0 0 12.496 13.79">
  <path id="Path_3774" data-name="Path 3774" d="M120.679,15.829a8.928,8.928,0,0,1-4.5-1.569,1.12,1.12,0,0,0-1.439,0,9.1,9.1,0,0,1-4.519,1.569,1.121,1.121,0,0,0-1.017,1.119c0,8.137,5.565,10.651,5.8,10.753a1.207,1.207,0,0,0,.9,0c.233-.1,5.8-2.616,5.8-10.753a1.121,1.121,0,0,0-1.017-1.119Zm-5.246,10.884a7.753,7.753,0,0,1-2.18-1.613l.145-1.264a1.381,1.381,0,0,1,1.366-1.221h1.351a1.37,1.37,0,0,1,1.366,1.221l.145,1.264a7.3,7.3,0,0,1-2.194,1.613Zm.015-5.405a1.264,1.264,0,1,1,1.264-1.264A1.265,1.265,0,0,1,115.448,21.307Zm3.153,2.63-.029-.233a2.482,2.482,0,0,0-1.482-1.976,2.354,2.354,0,1,0-4-1.686,2.335,2.335,0,0,0,.712,1.686,2.461,2.461,0,0,0-1.482,1.976l-.029.233a11.867,11.867,0,0,1-1.962-7,10.644,10.644,0,0,0,5.144-1.816,10.02,10.02,0,0,0,5.1,1.816l.029.029a11.748,11.748,0,0,1-2.005,6.975Z" transform="translate(-109.2 -13.998)" fill="#fff"/>
</svg>
