<svg xmlns="http://www.w3.org/2000/svg" width="242.456" height="88.585" viewBox="0 0 242.456 88.585">
  <g id="g10" transform="translate(-183.301 2387.223)">
    <g id="g12" transform="translate(183.301 -2387.223)">
      <g id="g22" transform="translate(62.043 0.881)">
        <path id="path24" d="M1435.942-1624.452v0l-175.551.018,1.514-52.465v-14.255h6.566v-11.133h13.1v9.45h4v-17.476h.87v-1.222h.156v1.222h3.159v-1.222h.157v1.222h4.472v-1.222h.158v1.222h2.815v-1.222h.156v1.222h1.156V-1694h4.422v-2.639l5.214.023v-4.276h1.048v-.846h.14v.846h4.027v0h.806v-.847h.138v.847h.972v8.5h6.207v3.129h3.451v-1.817h3.2v-7.213h1.6v-3.366h.241v3.366h3.824v-6.308h.376v6.308h2.53v-.088h0v-.8h0v-.758h0v-1.261h0v-.8h0v-1.261h0v-.8h0v-1.261h0v-.87h0v-1.26h0v-1.108h0v-1.26h0v-.836h.754v-.943h.121v.943h5.586v-.943h.12v.943h1.021v6.594l.717,0v0h-.006v-1.261h.006v-.87h-.006v-1.26h.006v-.867h-.006v-1.261h.006v0h6.775v0h1.163l.182.1v8.409h1.246v-1.212h14.3v9.45h4.367v-17.476h.948v-1.222h.172v1.222h3.446v-1.222h.172v1.222h4.882v-1.222h.17v1.222h3.074v-1.222h.17v1.222h1.263V-1694h4.825v-2.639l5.691.023v-4.275h1.145v-.846h.153v.846h5.273v-.847h.15v.847h1.061v8.5h6.775v3.128h3.768v-1.817h3.492v-7.214h1.742v-3.365h.263v3.365h4.175v-6.307h.409v6.307h2.052a57.993,57.993,0,0,1-.993,5.9c-.263,1.183-.56,2.379-.9,3.589-8.937,31.737,26.789,33.17,9.357,64.344" transform="translate(-1260.391 1711.601)" fill="#dfebfa"/>
      </g>
      <g id="g44" transform="translate(212.998 67.209)">
        <path id="path46" d="M3597.732-679.026s-2.515-2.934-.155-4.8a6.688,6.688,0,0,1,3.13-.958s-1.992,3.339-1.348,3.671,1.951-3.881,1.951-3.881,3.922-.38,5.184.227c0,0-3.353,2.744-2.647,2.908s4.327-2.531,4.327-2.531,3.651.621,3.457,2.848-1.452,2.915-2.006,2.855-3.786-1.293-3.858-.84,1.876,1.933,3.239,2c0,0-2.574,2.839-4.284,2.02s-1.855-2.118-2.922-2.605-1.977-.485-1.536.011,2.37.98,2.979,2.058,1.156,1.806-.614,1.54-4.646-1.561-4.772-3.044l-.126-1.483" transform="translate(-3596.567 685.109)" fill="#77a4e5"/>
      </g>
      <g id="g48" transform="translate(211.956 70.822)">
        <path id="path50" d="M3594.753-629.181s-9.916-.383-12.105,2.454a7.167,7.167,0,0,1-1.974,2.771l-.232.633s1.718-1.812,2.333-1.921c0,0-.961-3.513,11.979-3.936" transform="translate(-3580.441 629.198)" fill="#77a4e5"/>
      </g>
      <g id="g52" transform="translate(209.912 75.814)">
        <path id="path54" d="M3551.1-551.693a6.229,6.229,0,0,0-2.277,4.386l.387.034s.68-2.908,1.907-4.045-.017-.376-.017-.376" transform="translate(-3548.819 551.943)" fill="#77a4e5"/>
      </g>
      <g id="g56" transform="translate(190.697 59.244)">
        <path id="path58" d="M3266.112-798.018s4-2.24,2.135-5.281a7.951,7.951,0,0,0-3.095-2.347s.854,4.533,0,4.64-.587-5.12-.587-5.12-4.213-2.027-5.866-1.867c0,0,2.614,4.427,1.76,4.321s-3.787-4.587-3.787-4.587-4.32-.8-5.013,1.76.425,3.84,1.067,4,4.747.107,4.64.64-2.88,1.386-4.427.906c0,0,1.707,4.214,3.947,4s2.933-1.6,4.32-1.707,2.4.267,1.706.64-3.04.122-4.16,1.074-2.026,1.54.053,1.966,5.813.16,6.561-1.44l.745-1.6" transform="translate(-3251.439 808.377)" fill="#77a4e5"/>
      </g>
      <g id="g60" transform="translate(192.89 61.922)">
        <path id="path62" d="M3285.384-766.934s11.2,3.627,12.48,7.681a8.528,8.528,0,0,0,1.069,3.894v.8s-1.175-2.72-1.814-3.094c0,0,2.506-3.52-11.735-9.281" transform="translate(-3285.384 766.934)" fill="#77a4e5"/>
      </g>
      <g id="g64" transform="translate(205.902 72.999)">
        <path id="path66" d="M3487.295-595.012a7.388,7.388,0,0,1,.743,5.815l-.444-.119s.43-3.517-.473-5.286.175-.411.175-.411" transform="translate(-3486.76 595.511)" fill="#77a4e5"/>
      </g>
      <g id="g68" transform="translate(208.267 52.858)">
        <path id="path70" d="M3526.83-893.545s-5.273-2.953-2.813-6.96c0,0,1.969-2.461,4.077-3.094,0,0-1.123,5.976,0,6.117s.775-6.749.775-6.749,5.554-2.672,7.734-2.461c0,0-3.445,5.835-2.32,5.695s4.991-6.046,4.991-6.046,5.7-1.055,6.61,2.32-.564,5.062-1.406,5.273-6.258.141-6.117.844,3.8,1.828,5.835,1.2c0,0-2.249,5.554-5.2,5.273s-3.867-2.109-5.7-2.249-3.164.351-2.25.843,4.007.161,5.483,1.416,2.673,2.029-.069,2.592-7.664.211-8.648-1.9l-.984-2.109" transform="translate(-3523.363 907.2)" fill="#9fc1f4"/>
      </g>
      <g id="g72" transform="translate(210.328 56.389)">
        <path id="path74" d="M3573.107-852.557s-14.765,4.781-16.453,10.124a11.2,11.2,0,0,1-1.407,5.133v1.055s1.548-3.586,2.391-4.079c0,0-3.3-4.64,15.469-12.233" transform="translate(-3555.247 852.557)" fill="#9fc1f4"/>
      </g>
      <g id="g76" transform="translate(208.95 70.99)">
        <path id="path78" d="M3535.3-625.947a9.733,9.733,0,0,0-.979,7.666l.586-.157s-.569-4.636.623-6.968-.23-.541-.23-.541" transform="translate(-3533.925 626.604)" fill="#9fc1f4"/>
      </g>
      <g id="g80" transform="translate(201.227 78.111)">
        <path id="path82" d="M3424.74-506.07a10.33,10.33,0,0,0,10.33-10.33h-20.659a10.33,10.33,0,0,0,10.329,10.33" transform="translate(-3414.411 516.4)" fill="#9fc1f4"/>
      </g>
      <g id="g84" transform="translate(202.487 78.11)">
        <path id="path86" d="M3445.521-506.15a10.356,10.356,0,0,1-1.284.079,10.329,10.329,0,0,1-10.328-10.33h2.567a10.331,10.331,0,0,0,9.045,10.251" transform="translate(-3433.909 516.401)" fill="#afcdfb"/>
      </g>
      <g id="g88" transform="translate(200.888 78.111)">
        <path id="path90" d="M3430.386-516.08h-21.233v-.317h21.233v.317" transform="translate(-3409.153 516.397)" fill="#9fc1f4"/>
      </g>
      <g id="g92" transform="translate(153.32 44.146)">
        <path id="path94" d="M2683.141-998.249l-10.149-42.128.709-1.659,10.055,43.782a.179.179,0,0,1-.175.219h-.167a.28.28,0,0,1-.272-.214" transform="translate(-2672.991 1042.036)" fill="#77a4e5"/>
      </g>
      <g id="g96" transform="translate(117.324 69.634)">
        <path id="path98" d="M2116.262-629.071h0a.338.338,0,0,1-.333-.393l2.99-18.12h1.281l-3.565,18.207a.379.379,0,0,1-.373.306" transform="translate(-2115.924 647.584)" fill="#77a4e5"/>
      </g>
      <g id="g100" transform="translate(146.001 69.634)">
        <path id="path102" d="M2560.073-629.072h0a.338.338,0,0,1-.334-.393l2.99-18.12h1.281l-3.565,18.207a.378.378,0,0,1-.372.306" transform="translate(-2559.735 647.584)" fill="#77a4e5"/>
      </g>
      <g id="g104" transform="translate(117.59 23.299)">
        <path id="path106" d="M2155.745-1318.289h-35.7l7.4-46.373h35.7l-7.4,46.373" transform="translate(-2120.042 1364.661)" fill="#f5fbff"/>
      </g>
      <g id="g108" transform="translate(114.959 69.319)">
        <path id="path110" d="M2120.335-651.1H2079.33v-1.364h41.005v1.364" transform="translate(-2079.33 652.463)" fill="#77a4e5"/>
      </g>
      <g id="g112" transform="translate(125.746 26.086)">
        <path id="path114" d="M2259.648-1314.619a7.486,7.486,0,0,1-.161,1.079,7.434,7.434,0,0,1-7.03,5.859,6.226,6.226,0,0,1-6.171-6.916,7.467,7.467,0,0,1,7.19-6.939,6.206,6.206,0,0,1,2.179.384,5.946,5.946,0,0,1,.871.4,6.027,6.027,0,0,1,1.577,1.292,6.263,6.263,0,0,1,.669.933,6.136,6.136,0,0,1,.31.6,6.547,6.547,0,0,1,.524,1.854,7.006,7.006,0,0,1,.061,1.014c0,.144-.009.289-.02.436" transform="translate(-2246.267 1321.535)" fill="#bdd1f9"/>
      </g>
      <g id="g116" transform="translate(132.447 26.874)">
        <path id="path118" d="M2356.083-1306.512l-6.115,3.315s2.524-4.443,3.559-6.139a6.016,6.016,0,0,1,1.577,1.292,6.218,6.218,0,0,1,.67.933,6.121,6.121,0,0,1,.31.6" transform="translate(-2349.968 1309.335)" fill="#fff"/>
      </g>
      <g id="g120" transform="translate(133.611 26.28)">
        <path id="path122" d="M2373.565-1315.953l-5.586,3.028s2.3-4.059,3.251-5.608a5.492,5.492,0,0,1,1.441,1.18,5.7,5.7,0,0,1,.611.851,5.831,5.831,0,0,1,.283.548" transform="translate(-2367.979 1318.533)" fill="#f99746"/>
      </g>
      <g id="g124" transform="translate(121.063 49.189)">
        <path id="path126" d="M2174.022-947.2l28.971,0,2.916-16.614-28.972,0Zm29.148.173-29.387,0,2.975-16.955,29.387,0-2.976,16.956" transform="translate(-2173.783 963.982)" fill="#bdd1f9"/>
      </g>
      <g id="g128" transform="translate(122.635 59.324)">
        <path id="path130" d="M2224.178-802.639l-26.062,0s4.623-2.48,5.892-2.349,3.091,1.134,4.263,1.173,2.44-3.48,3.746-3.313,1.8,3.278,2.471,2.974a6.834,6.834,0,0,1,3.873,0c1.168.436,2.871-1.385,3.9-1.328s1.921,2.846,1.921,2.846" transform="translate(-2198.115 807.137)" fill="#f99746"/>
      </g>
      <g id="g132" transform="translate(123.924 58.574)">
        <path id="path134" d="M2223.047-818.479h-4.979l.047-.264h4.977l-.045.265" transform="translate(-2218.069 818.743)" fill="#f99746"/>
      </g>
      <g id="g136" transform="translate(123.826 59.138)">
        <path id="path138" d="M2221.52-809.758h-4.978l.046-.264h4.978l-.047.264" transform="translate(-2216.543 810.023)" fill="#f99746"/>
      </g>
      <g id="g140" transform="translate(124.127 50.825)">
        <path id="path142" d="M2221.208-934.173l26.062,0s-3.753-2.479-5.067-2.35-3.489,1.134-4.674,1.173-1.22-3.481-2.583-3.314-2.946,3.278-3.514,2.974a6.757,6.757,0,0,0-3.874,0c-1.32.436-2.384-1.385-3.431-1.328s-2.918,2.846-2.918,2.846" transform="translate(-2221.208 938.67)" fill="#bdd1f9"/>
      </g>
      <g id="g144" transform="translate(125.33 50.56)">
        <path id="path146" d="M2244.811-942.508h-4.978l.047-.264h4.978l-.047.264" transform="translate(-2239.833 942.771)" fill="#bdd1f9"/>
      </g>
      <g id="g148" transform="translate(125.23 51.124)">
        <path id="path150" d="M2243.263-933.783h-4.978l.047-.265h4.978l-.047.265" transform="translate(-2238.285 934.048)" fill="#bdd1f9"/>
      </g>
      <g id="g152" transform="translate(124.673 41.468)">
        <path id="path154" d="M2230.794-1078.116h-1.144l.993-5.356h1.144l-.993,5.356" transform="translate(-2229.651 1083.472)" fill="#bdd1f9"/>
      </g>
      <g id="g156" transform="translate(126.231 42.675)">
        <path id="path158" d="M2254.907-1060.652h-1.144l.77-4.149h1.143l-.769,4.149" transform="translate(-2253.764 1064.801)" fill="#bdd1f9"/>
      </g>
      <g id="g160" transform="translate(127.788 42.497)">
        <path id="path162" d="M2279.006-1063.229h-1.143l.8-4.327h1.144l-.8,4.327" transform="translate(-2277.863 1067.556)" fill="#bdd1f9"/>
      </g>
      <g id="g164" transform="translate(129.344 43.533)">
        <path id="path166" d="M2303.085-1048.222h-1.143l.611-3.291h1.143l-.611,3.291" transform="translate(-2301.942 1051.513)" fill="#bdd1f9"/>
      </g>
      <g id="g168" transform="translate(130.902 43.294)">
        <path id="path170" d="M2327.2-1051.693h-1.143l.655-3.531h1.143l-.655,3.531" transform="translate(-2326.061 1055.224)" fill="#bdd1f9"/>
      </g>
      <g id="g172" transform="translate(132.459 44.086)">
        <path id="path174" d="M2351.3-1040.223h-1.143l.509-2.738h1.142l-.508,2.738" transform="translate(-2350.158 1042.961)" fill="#bdd1f9"/>
      </g>
      <g id="g176" transform="translate(139.965 41.468)">
        <path id="path178" d="M2467.454-1078.116h-1.143l.993-5.356h1.144l-.994,5.356" transform="translate(-2466.312 1083.473)" fill="#f99746"/>
      </g>
      <g id="g180" transform="translate(141.523 42.675)">
        <path id="path182" d="M2491.57-1060.652h-1.143l.77-4.149h1.143l-.769,4.149" transform="translate(-2490.427 1064.802)" fill="#f99746"/>
      </g>
      <g id="g184" transform="translate(143.079 42.497)">
        <path id="path186" d="M2515.649-1063.229h-1.144l.8-4.328h1.143l-.8,4.328" transform="translate(-2514.505 1067.557)" fill="#f99746"/>
      </g>
      <g id="g188" transform="translate(144.635 43.533)">
        <path id="path190" d="M2539.735-1048.223h-1.143l.611-3.291h1.143l-.611,3.291" transform="translate(-2538.591 1051.514)" fill="#f99746"/>
      </g>
      <g id="g192" transform="translate(146.194 43.294)">
        <path id="path194" d="M2563.856-1051.694h-1.143l.655-3.531h1.143l-.655,3.531" transform="translate(-2562.713 1055.224)" fill="#f99746"/>
      </g>
      <g id="g196" transform="translate(147.75 44.086)">
        <path id="path198" d="M2587.943-1040.218H2586.8l.509-2.738h1.143l-.509,2.738" transform="translate(-2586.799 1042.956)" fill="#f99746"/>
      </g>
      <g id="g200" transform="translate(142.891 28.829)">
        <path id="path202" d="M2515.314-1278.566h-3.72l.1-.509h3.72l-.1.509" transform="translate(-2511.594 1279.075)" fill="#bdd1f9"/>
      </g>
      <g id="g204" transform="translate(147.067 28.829)">
        <path id="path206" d="M2580.344-1278.566h-4.11l.1-.509h4.109l-.1.509" transform="translate(-2576.234 1279.075)" fill="#bdd1f9"/>
      </g>
      <g id="g208" transform="translate(151.485 28.829)">
        <path id="path210" d="M2647.214-1278.563h-2.62l.1-.509h2.62l-.1.509" transform="translate(-2644.594 1279.072)" fill="#bdd1f9"/>
      </g>
      <g id="g212" transform="translate(154.53 28.829)">
        <path id="path214" d="M2693.744-1278.573h-2.021l.1-.509h2.021l-.1.509" transform="translate(-2691.723 1279.082)" fill="#bdd1f9"/>
      </g>
      <g id="g216" transform="translate(142.481 31.004)">
        <path id="path218" d="M2508.979-1244.909h-3.722l.1-.51h3.721l-.1.51" transform="translate(-2505.257 1245.419)" fill="#bdd1f9"/>
      </g>
      <g id="g220" transform="translate(146.658 31.004)">
        <path id="path222" d="M2574.013-1244.911H2569.9l.1-.51h4.109l-.1.51" transform="translate(-2569.904 1245.421)" fill="#bdd1f9"/>
      </g>
      <g id="g224" transform="translate(151.077 31.003)">
        <path id="path226" d="M2640.912-1244.917h-2.62l.1-.51h2.62l-.1.51" transform="translate(-2638.292 1245.427)" fill="#bdd1f9"/>
      </g>
      <g id="g228" transform="translate(154.121 31.004)">
        <path id="path230" d="M2687.413-1244.916h-2.021l.1-.51h2.021l-.1.51" transform="translate(-2685.392 1245.426)" fill="#bdd1f9"/>
      </g>
      <g id="g232" transform="translate(143.113 27.639)">
        <path id="path234" d="M2520.751-1296.979h-5.709l.1-.51h5.709l-.1.51" transform="translate(-2515.042 1297.489)" fill="#bdd1f9"/>
      </g>
      <g id="g236" transform="translate(149.367 27.639)">
        <path id="path238" d="M2615.112-1296.983h-3.291l.1-.51h3.291l-.1.51" transform="translate(-2611.821 1297.493)" fill="#bdd1f9"/>
      </g>
      <g id="g240" transform="translate(153.123 27.639)">
        <path id="path242" d="M2673.6-1296.981h-3.655l.095-.51h3.655l-.095.51" transform="translate(-2669.942 1297.491)" fill="#bdd1f9"/>
      </g>
      <g id="g244" transform="translate(142.68 29.952)">
        <path id="path246" d="M2514.043-1261.2h-5.709l.1-.51h5.709l-.1.51" transform="translate(-2508.334 1261.705)" fill="#bdd1f9"/>
      </g>
      <g id="g248" transform="translate(148.933 29.951)">
        <path id="path250" d="M2608.4-1261.2h-3.291l.1-.51h3.291l-.1.51" transform="translate(-2605.107 1261.709)" fill="#bdd1f9"/>
      </g>
      <g id="g252" transform="translate(152.689 29.952)">
        <path id="path254" d="M2666.89-1261.2h-3.654l.095-.51h3.655l-.1.51" transform="translate(-2663.236 1261.707)" fill="#bdd1f9"/>
      </g>
      <g id="g256" transform="translate(142.074 33.178)">
        <path id="path258" d="M2502.68-1211.264h-3.722l.1-.51h3.72l-.1.51" transform="translate(-2498.958 1211.774)" fill="#bdd1f9"/>
      </g>
      <g id="g260" transform="translate(146.25 33.178)">
        <path id="path262" d="M2567.7-1211.261h-4.109l.1-.51h4.109l-.1.51" transform="translate(-2563.59 1211.771)" fill="#bdd1f9"/>
      </g>
      <g id="g264" transform="translate(150.669 33.178)">
        <path id="path266" d="M2634.589-1211.262h-2.62l.1-.51h2.62l-.1.51" transform="translate(-2631.968 1211.772)" fill="#bdd1f9"/>
      </g>
      <g id="g268" transform="translate(153.713 33.178)">
        <path id="path270" d="M2681.1-1211.261h-2.021l.1-.51h2.021l-.1.51" transform="translate(-2679.077 1211.771)" fill="#bdd1f9"/>
      </g>
      <g id="g272" transform="translate(142.271 32.127)">
        <path id="path274" d="M2507.716-1227.526h-5.71l.1-.509h5.71l-.1.509" transform="translate(-2502.006 1228.036)" fill="#bdd1f9"/>
      </g>
      <g id="g276" transform="translate(148.525 32.127)">
        <path id="path278" d="M2602.084-1227.531h-3.291l.1-.509h3.291l-.1.509" transform="translate(-2598.793 1228.041)" fill="#bdd1f9"/>
      </g>
      <g id="g280" transform="translate(152.28 32.127)">
        <path id="path282" d="M2660.551-1227.53H2656.9l.1-.509h3.655l-.1.509" transform="translate(-2656.897 1228.039)" fill="#bdd1f9"/>
      </g>
      <g id="g284" transform="translate(141.691 35.218)">
        <path id="path286" d="M2496.743-1179.7h-3.721l.095-.51h3.722l-.1.51" transform="translate(-2493.022 1180.208)" fill="#bdd1f9"/>
      </g>
      <g id="g288" transform="translate(145.869 35.217)">
        <path id="path290" d="M2561.79-1179.705h-4.109l.1-.51h4.109l-.1.51" transform="translate(-2557.68 1180.215)" fill="#bdd1f9"/>
      </g>
      <g id="g292" transform="translate(150.286 35.217)">
        <path id="path294" d="M2628.666-1179.7h-2.62l.1-.51h2.619l-.1.51" transform="translate(-2626.046 1180.213)" fill="#bdd1f9"/>
      </g>
      <g id="g296" transform="translate(153.331 35.217)">
        <path id="path298" d="M2675.191-1179.706h-2.021l.1-.51h2.021l-.1.51" transform="translate(-2673.17 1180.216)" fill="#bdd1f9"/>
      </g>
      <g id="g300" transform="translate(141.889 34.166)">
        <path id="path302" d="M2501.8-1195.979h-5.709l.1-.51h5.708l-.095.51" transform="translate(-2496.088 1196.489)" fill="#bdd1f9"/>
      </g>
      <g id="g304" transform="translate(148.141 34.165)">
        <path id="path306" d="M2596.139-1195.983h-3.292l.1-.51h3.291l-.1.51" transform="translate(-2592.848 1196.493)" fill="#bdd1f9"/>
      </g>
      <g id="g308" transform="translate(151.897 34.165)">
        <path id="path310" d="M2654.629-1195.982h-3.655l.1-.51h3.655l-.1.51" transform="translate(-2650.974 1196.492)" fill="#bdd1f9"/>
      </g>
      <g id="g312" transform="translate(135.121 42.015)">
        <path id="path314" d="M2393.181-1074.761h-1.822l.048-.249h1.821l-.047.249" transform="translate(-2391.358 1075.01)" fill="#bdd1f9"/>
      </g>
      <g id="g316" transform="translate(137.168 42.015)">
        <path id="path318" d="M2425.034-1074.762h-2.011l.047-.249h2.01l-.046.249" transform="translate(-2423.023 1075.01)" fill="#bdd1f9"/>
      </g>
      <g id="g320" transform="translate(134.923 43.079)">
        <path id="path322" d="M2390.1-1058.3h-1.822l.047-.25h1.822l-.047.25" transform="translate(-2388.28 1058.546)" fill="#bdd1f9"/>
      </g>
      <g id="g324" transform="translate(136.968 43.079)">
        <path id="path326" d="M2421.942-1058.3h-2.011l.047-.25h2.011l-.047.25" transform="translate(-2419.931 1058.547)" fill="#bdd1f9"/>
      </g>
      <g id="g328" transform="translate(135.232 41.433)">
        <path id="path330" d="M2395.863-1083.777h-2.795l.047-.25h2.794l-.046.25" transform="translate(-2393.068 1084.027)" fill="#bdd1f9"/>
      </g>
      <g id="g332" transform="translate(138.293 41.432)">
        <path id="path334" d="M2442.049-1083.778h-1.611l.047-.25h1.611l-.047.25" transform="translate(-2440.438 1084.028)" fill="#bdd1f9"/>
      </g>
      <g id="g336" transform="translate(135.019 42.565)">
        <path id="path338" d="M2392.574-1066.252h-2.794l.046-.25h2.794l-.047.25" transform="translate(-2389.78 1066.502)" fill="#bdd1f9"/>
      </g>
      <g id="g340" transform="translate(138.08 42.565)">
        <path id="path342" d="M2438.749-1066.255h-1.611l.047-.25h1.611l-.047.25" transform="translate(-2437.139 1066.504)" fill="#bdd1f9"/>
      </g>
      <g id="g344" transform="translate(149.713 42.015)">
        <path id="path346" d="M2619-1074.764h-1.821l.047-.249h1.821l-.047.249" transform="translate(-2617.18 1075.013)" fill="#bdd1f9"/>
      </g>
      <g id="g348" transform="translate(151.757 42.015)">
        <path id="path350" d="M2650.826-1074.765h-2.012l.048-.249h2.01l-.047.249" transform="translate(-2648.814 1075.014)" fill="#bdd1f9"/>
      </g>
      <g id="g352" transform="translate(149.511 43.079)">
        <path id="path354" d="M2615.879-1058.291h-1.822l.048-.25h1.821l-.047.25" transform="translate(-2614.057 1058.541)" fill="#bdd1f9"/>
      </g>
      <g id="g356" transform="translate(151.557 43.079)">
        <path id="path358" d="M2647.722-1058.292h-2.011l.048-.25h2.01l-.046.25" transform="translate(-2645.71 1058.542)" fill="#bdd1f9"/>
      </g>
      <g id="g360" transform="translate(149.821 41.433)">
        <path id="path362" d="M2621.644-1083.771h-2.8l.048-.25h2.794l-.046.25" transform="translate(-2618.849 1084.02)" fill="#bdd1f9"/>
      </g>
      <g id="g364" transform="translate(152.883 41.433)">
        <path id="path366" d="M2667.847-1083.773h-1.61l.046-.25h1.611l-.047.25" transform="translate(-2666.237 1084.023)" fill="#bdd1f9"/>
      </g>
      <g id="g368" transform="translate(149.609 42.565)">
        <path id="path370" d="M2618.367-1066.255h-2.8l.048-.25h2.794l-.046.25" transform="translate(-2615.572 1066.505)" fill="#bdd1f9"/>
      </g>
      <g id="g372" transform="translate(152.671 42.565)">
        <path id="path374" d="M2664.563-1066.258h-1.61l.046-.25h1.612l-.047.25" transform="translate(-2662.953 1066.508)" fill="#bdd1f9"/>
      </g>
      <g id="g376" transform="translate(152.828 81.456)">
        <path id="path378" d="M2673.782-458.622c-.065.872-1.294.881-2.689.72s-1.025.191-2.979.218-2.628-.619-2.723-.9c-.084-.247.857-.456,1.863-.7.128-.03.255-.062.381-.095a8.406,8.406,0,0,0,2.859-1.88,12.347,12.347,0,0,0,2.106-3.246l2.669-.121s-1.124,2.281-1.545,3.263a3.222,3.222,0,0,0-.036,1.834,3.433,3.433,0,0,1,.093.906" transform="translate(-2665.387 464.625)" fill="#ffb27d"/>
      </g>
      <g id="g380" transform="translate(152.829 86.553)">
        <path id="path382" d="M2671.111-384.122c-1.4-.162-1.025.191-2.979.218s-2.627-.619-2.722-.9c-.084-.247.857-.456,1.863-.7l.012.019a5.485,5.485,0,0,0,2.867.513c1.312-.132,2.651-.679,3.555-.777a3.444,3.444,0,0,1,.093.906c-.065.872-1.294.881-2.69.719" transform="translate(-2665.405 385.748)" fill="#233862"/>
      </g>
      <g id="g384" transform="translate(171.264 79.852)">
        <path id="path386" d="M2959.095-481.663c-.063.872-1.293.882-2.689.722s-1.024.192-2.978.221-2.628-.616-2.724-.9c-.084-.248.857-.457,1.864-.7l.38-.095a8.426,8.426,0,0,0,2.857-1.883c.918-.7,0-4.87,0-4.87l2.936-.285s-.141,3.507-.138,5.1a9.083,9.083,0,0,0,.4,1.78,3.445,3.445,0,0,1,.094.906" transform="translate(-2950.699 489.452)" fill="#ffb27d"/>
      </g>
      <g id="g388" transform="translate(171.264 86.734)">
        <path id="path390" d="M2956.405-381.318c-1.4-.16-1.024.192-2.978.221s-2.628-.616-2.724-.9c-.084-.248.857-.457,1.864-.7l.011.018a5.485,5.485,0,0,0,2.869.511c1.311-.133,2.648-.682,3.553-.781a3.445,3.445,0,0,1,.094.906c-.063.872-1.293.882-2.689.722" transform="translate(-2950.699 382.946)" fill="#233862"/>
      </g>
      <g id="g392" transform="translate(170.922 9.943)">
        <path id="path394" d="M2945.582-1565.667c-.506-2.079.227-3.047.889-3.562a3.15,3.15,0,0,1,1.037-1.525,3.741,3.741,0,0,1,2.026-.388.947.947,0,0,0-.427-.2,3.138,3.138,0,0,1,1.12.292c4.825-1.859,5.582,5.244,5.481,6.895s-.088,3.594,2.423,4.894c4.789,2.481-1.591,11.831-1.591,11.831.122-1.334-6.032-8.372-9.243-10.479a9.263,9.263,0,0,1-1.079-3.343,8.733,8.733,0,0,0,.657,3.024c-1.464-1.347-1.68-4.58-1.293-7.437" transform="translate(-2945.413 1571.36)" fill="#a9453d"/>
      </g>
      <g id="g396" transform="translate(172.997 18.743)">
        <path id="path398" d="M2977.517-1430.422a4.444,4.444,0,0,0,2.727.5,3.541,3.541,0,0,0,1.817-1.742c-.469-.093-.6-.738-.594-3.509l-.211.042-3.568.706s.082,1.123.083,2.18c0,.888-.051,1.73-.254,1.825" transform="translate(-2977.517 1435.175)" fill="#ffb27d"/>
      </g>
      <g id="g400" transform="translate(173.168 18.784)">
        <path id="path402" d="M2980.164-1433.825s.082,1.122.083,2.18c2-.056,3.053-1.877,3.485-2.886l-3.568.706" transform="translate(-2980.164 1434.531)" fill="#ed975d"/>
      </g>
      <g id="g404" transform="translate(158.613 43.225)">
        <path id="path406" d="M2754.961-1016.524a.875.875,0,0,0,.793,1.14l1.393.066,1.476.045a1.183,1.183,0,0,0,.954-.436,41.45,41.45,0,0,0,7-13.247c.063-.2.127-.395.2-.6,1.451-4.232,4.459-9.543,6.044-14.351.253-.766.48-1.487.682-2.168.064-.219.129-.433.189-.644a51.009,51.009,0,0,0,1.819-9.573l-11.448.092a252.276,252.276,0,0,1-9.1,39.673" transform="translate(-2754.919 1056.29)" fill="#2a4e96"/>
      </g>
      <g id="g408" transform="translate(167.693 21.902)">
        <path id="path410" d="M2897.09-1371.442c.029,5.448-.8,7.785-.8,7.785a15.382,15.382,0,0,0,10.727.657c.068-.022,4.168-1.182,4.168-1.182-.1-.221-.907-3.866-1-4.068a19.055,19.055,0,0,1-1.711-4.562,17.306,17.306,0,0,1-.142-4.565,36.672,36.672,0,0,1,1.413-7.167,37.2,37.2,0,0,1-4.726-1.615,3.691,3.691,0,0,1-2.55.946c-1.161-.026-1.537-.522-1.477-1.065-1.236.688-2.223,1.338-2.223,1.338-1.051,1.826-3.183,3.6-3.337,6.4-.039.688,1.659,6.947,1.659,7.1" transform="translate(-2895.431 1386.278)" fill="#fff"/>
      </g>
      <g id="g412" transform="translate(177.479 27.878)">
        <path id="path414" d="M3048.6-1284.322c.5.708,1.459,5.013,3.847,5.554-1.231-3.068-2.165-4.414-2.31-5.357a23.3,23.3,0,0,1-.142-5.3c-.8-1.4-1.395-2.361-1.395-2.361-.063-.227-1.271-3.959-1.657-.623a15.4,15.4,0,0,0,1.657,8.087" transform="translate(-3046.877 1293.789)" fill="#5f9aa8"/>
      </g>
      <g id="g416" transform="translate(170.928 12.523)">
        <path id="path418" d="M2947.078-1523.457s4.723.078,4.727-2.864.615-4.913-2.4-5.087-3.6.948-3.842,1.93.288,5.925,1.516,6.021" transform="translate(-2945.506 1531.426)" fill="#ffb27d"/>
      </g>
      <g id="g420" transform="translate(172.676 11.871)">
        <path id="path422" d="M2972.557-1540.917s1.292,3.451,3.277,3.961a3.908,3.908,0,0,0,2.845-.021,5.614,5.614,0,0,1-1.837-3.32s-3.31-2.263-4.285-.62" transform="translate(-2972.557 1541.515)" fill="#a9453d"/>
      </g>
      <g id="g424" transform="translate(170.606 12.186)">
        <path id="path426" d="M2942.908-1536.076a4.167,4.167,0,0,0-1.2,1.52c-.236.749-.342,2.291-.792,2.239,0,0-.974-2.346.122-3.673,1.16-1.407,1.871-.086,1.871-.086" transform="translate(-2940.517 1536.638)" fill="#a9453d"/>
      </g>
      <g id="g428" transform="translate(162.84 40.52)">
        <path id="path430" d="M2822.556-1098.154l-2.23,6.8,1.271.51,3.689-6.008-2.73-1.3" transform="translate(-2820.326 1098.154)" fill="#ffb27d"/>
      </g>
      <g id="g432" transform="translate(164.516 22.84)">
        <path id="path434" d="M2852.834-1371.772s-2.63,1.044-3.392,2.671-1.914,12.542-2.372,13.662-.805,2.008-.805,2.008a5.484,5.484,0,0,0,2.66,1.2c1.333.083,3.909-19.541,3.909-19.541" transform="translate(-2846.266 1371.772)" fill="#f99746"/>
      </g>
      <g id="g436" transform="translate(166.103 21.902)">
        <path id="path438" d="M2877.972-1386.283s-2.731,6.75-2.812,8.116-.322,22.339-.322,22.339.16.964-1.688.562a6.214,6.214,0,0,1-2.331-.8s1.768-12.937,1.286-17.438,3.7-11.839,3.7-11.839l2.169-.937" transform="translate(-2870.82 1386.283)" fill="#f99746"/>
      </g>
      <g id="g440" transform="translate(160.842 51.519)">
        <path id="path442" d="M2789.414-895.256l1.6.048a.923.923,0,0,0,.743-.335,41.338,41.338,0,0,0,7.083-13.351q.092-.295.2-.6c1.451-4.232,4.459-9.543,6.046-14.351.252-.766.478-1.487.682-2.169.064-.219.128-.433.188-.644l-1.687-1.279s-5.061,8.2-6.627,15.909c-1.362,6.7-6.812,14.762-8.224,16.767" transform="translate(-2789.414 927.933)" fill="#1e3d70"/>
      </g>
      <g id="g444" transform="translate(174.392 49.344)">
        <path id="path446" d="M3000.239-942.792c-.027,3.549.14,11.458.572,15.324a.7.7,0,0,0,.695.62h1.194c.5,0,.88,0,1.131-.007a.459.459,0,0,0,.442-.371c1.188-6.045,2.038-11.067,2.66-15.406.521-3.632.985-6.746,1.34-9.426.358-2.7.607-4.956.7-6.865.014-.3.025-.593.031-.877s.006-.562,0-.831l-9.893-.964c.125,6.572,1.142,16.623,1.126,18.8" transform="translate(-2999.113 961.595)" fill="#2a4e96"/>
      </g>
      <g id="g448" transform="translate(177.981 52.016)">
        <path id="path450" d="M3054.649-888.163q.678,0,1.05-.006a.559.559,0,0,0,.54-.45c1.179-6.01,2.025-11.008,2.645-15.329.52-3.631.983-6.746,1.339-9.426.359-2.7.607-4.957.7-6.865l-3.629,2.135s2.316.818,1.433,7-2.842,22.061-4.073,22.936" transform="translate(-3054.649 920.238)" fill="#1e3d70"/>
      </g>
      <g id="g452" transform="translate(174.133 22.039)">
        <path id="path454" d="M2998.475-1354.239s.7,2.517,3.108,2.2a29.033,29.033,0,0,0,5.838-1.768s-1.03-3.255-2.311-7.532c-1.551-5.177-3.47-11.851-4.375-16.061a25.85,25.85,0,0,1-.492-2.871l-2-3.88s-2.982,6.693-3.144,8.38,3.375,21.535,3.375,21.535" transform="translate(-2995.095 1384.155)" fill="#f99746"/>
      </g>
      <g id="g456" transform="translate(170.603 22.039)">
        <path id="path458" d="M2949.785-1376.025l-2.639-8.129a40.736,40.736,0,0,1,5.008,1.835,11.652,11.652,0,0,1,1.693,4.46s.683,7.469-.843,10.2c0,0-4.823.965-12.536-1.687v-1.768s8.438.442,10.165.643l-.848-5.555" transform="translate(-2940.468 1384.154)" fill="#ffb27d"/>
      </g>
      <g id="g460" transform="translate(177.618 28.79)">
        <path id="path462" d="M3049.042-1274.515c.107,2.732.75,8.036,6.482,10.875a.465.465,0,0,0,.046.021c-1.551-5.177-3.472-11.851-4.376-16.061-1.053,1.573-2.212,3.661-2.153,5.165" transform="translate(-3049.04 1279.68)" fill="#ed7d2b"/>
      </g>
      <g id="g464" transform="translate(176.998 22.039)">
        <path id="path466" d="M3039.729-1384.155s4.892.345,6.071,2.97,1.553,11.357.053,13.929a13.665,13.665,0,0,1-5.717-.095l-.136-.026s-1.165-2.853-.12-3.415c0,0,3.08.16,2.758-.857s-2.91-12.505-2.91-12.505" transform="translate(-3039.446 1384.155)" fill="#f99746"/>
      </g>
      <g id="g468" transform="translate(165.014 33.675)">
        <path id="path470" d="M2853.971-1201.583l.143.463,8.029-2.5a.306.306,0,0,0,.054-.283.226.226,0,0,0-.2-.179l-8.028,2.5" transform="translate(-2853.971 1204.081)" fill="#a9453d"/>
      </g>
      <g id="g472" transform="translate(164.432 36.173)">
        <path id="path474" d="M2844.973-1164.989l.581-.438.144.463-.725-.025" transform="translate(-2844.973 1165.426)" fill="#a9453d"/>
      </g>
      <g id="g476" transform="translate(160.723 47.135)">
        <path id="path478" d="M2790-995.781s-2.038,1.125-2.305,1.983-.083,2.653.239,2.626.807-1.93,1.074-2.063.643-.536.643-.241-.268.831-.134.911.563-.75.858-.911.419-1.486.705-1.842-1.08-.463-1.08-.463" transform="translate(-2787.566 995.781)" fill="#ffb27d"/>
      </g>
      <g id="g480" transform="translate(165.992 34.113)">
        <path id="path482" d="M2873.723-1196.332s-1.822-1.122-2.586-.949-2.71,1.583-1.774,1.889,1.7-.015,2.055.207a3.025,3.025,0,0,0,2.3.622c1.679-.006,0-1.768,0-1.768" transform="translate(-2869.114 1197.3)" fill="#ffb27d"/>
      </g>
      <path id="path484" d="M1571.493-362.5h-.03a.316.316,0,0,1-.227-.1h.494a.34.34,0,0,1-.237.1" transform="translate(-1489.108 450.648)" fill="#a6c4ef"/>
      <path id="path486" d="M1569.95-652.106a.312.312,0,0,1-.089-.227l.456-19.772h1.366l-1.136,19.773a.341.341,0,0,1-.1.226h-.494" transform="translate(-1487.821 740.154)" fill="#a1c0ed"/>
      <path id="path488" d="M1444.452-362.491h-.03a.313.313,0,0,1-.226-.095h.492a.341.341,0,0,1-.236.095" transform="translate(-1370.277 450.635)" fill="#a6c4ef"/>
      <path id="path490" d="M1442.9-652.629a.314.314,0,0,1-.09-.228l.457-19.808a1.4,1.4,0,0,0,.314.036h1.051l-1.136,19.773a.339.339,0,0,1-.1.227h-.492" transform="translate(-1368.978 740.678)" fill="#a1c0ed"/>
      <path id="path492" d="M1795.318-362.528h-.03a.342.342,0,0,1-.239-.1h.5a.315.315,0,0,1-.228.1" transform="translate(-1698.459 450.673)" fill="#a6c4ef"/>
      <path id="path494" d="M1777.127-652.108a.341.341,0,0,1-.1-.224l-1.136-19.773h1.366l.456,19.772a.313.313,0,0,1-.087.226h-.5" transform="translate(-1680.537 740.154)" fill="#a1c0ed"/>
      <path id="path496" d="M1452.989-977.947H1433.7v-14.2a4.526,4.526,0,0,1,4.526-4.526h10.234a4.526,4.526,0,0,1,4.526,4.526v14.2" transform="translate(-1360.462 1043.754)" fill="#a1c0ed"/>
      <path id="path498" d="M1442.241-704.569h-7.178a1.393,1.393,0,0,1-.314-.036,1.361,1.361,0,0,1-1.045-1.322v-.884h8.538a1,1,0,0,0-1,1v.233a1,1,0,0,0,1,1" transform="translate(-1360.462 772.618)" fill="#a1c0ed"/>
      <path id="path500" d="M1566.243-704.569h-14.949a1,1,0,0,1-1-1v-.233a1,1,0,0,1,1-1h14.949a1,1,0,0,1,1.005,1v.233a1,1,0,0,1-1.005,1" transform="translate(-1469.515 772.618)" fill="#a1c0ed"/>
      <path id="path502" d="M1943.5-561.2c.143.714,1.16.6,2.3.317s.867.053,2.485-.127,2.109-.782,2.158-1.023c.044-.214-.755-.289-1.613-.388l-.325-.039a7,7,0,0,1-2.557-1.26,10.273,10.273,0,0,1-2.076-2.467l-2.219.176s1.165,1.769,1.615,2.538a2.688,2.688,0,0,1,.218,1.512,2.87,2.87,0,0,0,.016.759" transform="translate(-1835.586 641.079)" fill="#ffb27d"/>
      <path id="path504" d="M1972.09-506.382c1.137-.277.867.053,2.485-.127s2.109-.782,2.158-1.023c.044-.214-.756-.289-1.613-.388l-.009.016a4.555,4.555,0,0,1-2.317.72c-1.1.027-2.261-.288-3.019-.276a2.875,2.875,0,0,0,.016.759c.143.714,1.16.6,2.3.317" transform="translate(-1861.879 586.577)" fill="#233862"/>
      <path id="path506" d="M1673.272-505.75c-.441.58.321,1.264,1.282,1.932s.534.685,1.739,1.78,1.982,1.064,2.2.942c.189-.109-.283-.757-.776-1.466-.063-.089-.124-.179-.186-.269a7.006,7.006,0,0,1-.747-2.751c-.186-.946,1.359-4.424,1.359-4.424l-2.482-.313a27.939,27.939,0,0,1-.6,2.947c-.165.5-.854.826-1.222,1.106a2.852,2.852,0,0,0-.558.515" transform="translate(-1584.431 588.822)" fill="#ffb27d"/>
      <path id="path508" d="M1674.554-445.138c.961.669.534.685,1.739,1.78s1.982,1.064,2.2.942c.189-.109-.283-.757-.776-1.466l-.018.005a4.565,4.565,0,0,1-2.073-1.261c-.746-.806-1.281-1.886-1.791-2.447a2.848,2.848,0,0,0-.558.515c-.441.58.321,1.264,1.282,1.932" transform="translate(-1584.431 530.143)" fill="#233862"/>
      <path id="path510" d="M1711.584-771.058l-2.268,6.1-2.96,7.967a4.792,4.792,0,0,1-1.572-.144,6.835,6.835,0,0,1-1.521-.74s.822-8.554,2.355-13.464a8.755,8.755,0,0,1,1.319-2.854c2.377-2.809,4.646,3.134,4.646,3.134" transform="translate(-1612.604 836.35)" fill="#163560"/>
      <path id="path512" d="M1478.874-882.366c-1.485-.479-5.962-.193-10.217.64l-.652-1.141-9.193-.718s-3.033,6.727-1.372,11.013a1.555,1.555,0,0,0,1.556,1.048h.134l7.247,0c4.572,0,9.675-3.143,10.336-3.275,1.08-.216,1.513,1.945,2.593,4.215s10.158,10.05,10.158,10.05a7.993,7.993,0,0,0,1.972-.2,1.943,1.943,0,0,0,.846-.534s-10.058-20.012-13.408-21.092" transform="translate(-1382.199 937.969)" fill="#2a4e96"/>
      <path id="path514" d="M1413.094-1304.893a9.7,9.7,0,0,0-3.342.087c-3.491.407-4.271,5.831-4.012,7.347.479,2.8-.864,3.583-2.467,5.819-3.212,4.483-.993,8.174,1.622,9.089,1.569.549,3.706-.946,3.706-.946.04.015,5.551-5.247,8.278-7.8,4.583-1.889-.488-12.809-3.786-13.594" transform="translate(-1330.509 1332.17)" fill="#233862"/>
      <path id="path516" d="M1519.722-1166.312a4.333,4.333,0,0,1-2.593.747,4.808,4.808,0,0,1-2.254-1.628c.445-.135.839-.656.561-3.338l.209.02,3.523.338s.03,1.095.13,2.119c.083.86.218,1.67.424,1.742" transform="translate(-1436.388 1206.374)" fill="#ffb27d"/>
      <path id="path518" d="M1530.319-1169.886s.03,1.095.13,2.119c-1.938.139-3.136-1.521-3.653-2.457l3.523.338" transform="translate(-1447.539 1206.087)" fill="#ed975d"/>
      <path id="path520" d="M1517.964-1260.809s-4.564.533-4.853-2.315-1.072-4.7,1.831-5.158,3.58.568,3.907,1.5.3,5.765-.885,5.977" transform="translate(-1434.442 1297.915)" fill="#ffb27d"/>
      <path id="path522" d="M1499.149-1274.426s-2.2,3.156-4.076,3.843a3.8,3.8,0,0,1-2.757.255,7.748,7.748,0,0,0,1.187-2.921,1.4,1.4,0,0,1,.911-1.081c1.342-.469,3.93-1.186,4.735-.1" transform="translate(-1415.288 1304.091)" fill="#233862"/>
      <path id="path524" d="M1569.863-1274.385a7.172,7.172,0,0,1,1.649,1.275,5.512,5.512,0,0,1,.869,2.8s.743-3.239-.446-4.418a1.215,1.215,0,0,0-2.072.339" transform="translate(-1487.823 1304.283)" fill="#233862"/>
      <path id="path526" d="M1467.257-1116.171c-.138,9.221-.038,7.295-1.047,8.169a3.869,3.869,0,0,1-1.826.4c-2.827.188-7.8-.278-7.986-.8-.652-1.808-.191-2.37-.736-5.137-.057-.295-.127-.614-.209-.961-.453-1.9-.9-2.548.714-5.6a21.911,21.911,0,0,1,3.172-4.9c3.851,2.286,4.1.329,4.1.329s3.883,4,3.816,8.5" transform="translate(-1380.413 1163.789)" fill="#fff"/>
      <path id="path528" d="M1707.819-712.724l-3.028,8.3a5.123,5.123,0,0,1-1.88.24,2.36,2.36,0,0,1-1.249-.558s.925-9.451,2.459-14.361l3.7,6.381" transform="translate(-1611.106 784.117)" fill="#2a4e96"/>
      <path id="path530" d="M1585.156-1119.891s3.962.672,4.427,2.378,3.868,11.107,3.868,11.107-2.678.99-3.61.06-3.238-8.634-3.238-8.634l-1.448-4.911" transform="translate(-1502.129 1159.006)" fill="#fff"/>
      <path id="path532" d="M1473.492-985.427c-2.827.188-7.8-.278-7.987-.8-.652-1.808-.191-2.37-.736-5.138l1.327-3.02s-.188,3.456,1.073,4.58,5.163,2.171,5.777,3.111a3.435,3.435,0,0,1,.546,1.266" transform="translate(-1389.521 1041.609)" fill="#dfebfd"/>
      <path id="path534" d="M1603.329-886.211a6.34,6.34,0,0,0,1.081.786.673.673,0,0,0,.376,0l-.614-.719-.844-.071" transform="translate(-1519.127 940.426)" fill="#ffb27d"/>
      <path id="path536" d="M1598.156-899.451l2.132.55a.352.352,0,0,1-.3.189,4.689,4.689,0,0,1-.889-.061l-.947-.678" transform="translate(-1514.288 952.81)" fill="#ffb27d"/>
      <path id="path538" d="M1542.21-898.513s3.044-1.354,3.615-1.175a7.646,7.646,0,0,1,2.267,1.281c.23.327-1.2-.041-1.647-.068a3.831,3.831,0,0,0-1.294.57,4.589,4.589,0,0,1-2.376.734l-.565-1.342" transform="translate(-1461.957 953.047)" fill="#ffb27d"/>
      <path id="path540" d="M1390.1-1124.971s-4.306.808-5.1,2c-1.74,2.6-5.446,13.395-3.371,14.841,2.338,1.63,10.636.427,10.636.427a3.372,3.372,0,0,0-.109-1.915c-.383-.625-6.628-1.633-6.916-1.921s2.847-4.455,2.513-5.253c-1.07-2.555,2.35-8.18,2.35-8.18" transform="translate(-1311.177 1163.757)" fill="#fff"/>
      <path id="path542" d="M1779.592-888.385s3.014.814,3.323,1.282a7.155,7.155,0,0,1,.891,2.271c-.026.373-.849-.738-1.156-1.023a3.6,3.6,0,0,0-1.278-.35,3.8,3.8,0,0,1-1.663-.76.911.911,0,0,0-.5-.111l.383-1.31" transform="translate(-1683.642 942.459)" fill="#ffb27d"/>
      <path id="path544" d="M1832.489-855.865a5.875,5.875,0,0,0,.322,1.21.631.631,0,0,0,.271.226l-.021-.886-.572-.55" transform="translate(-1733.479 912.04)" fill="#ffb27d"/>
      <path id="path546" d="M1836.556-868.545l1.226,1.66a.333.333,0,0,1-.328-.038,4.448,4.448,0,0,1-.61-.569l-.288-1.053" transform="translate(-1737.283 923.901)" fill="#ffb27d"/>
      <path id="path548" d="M1786.929-866.4a1.9,1.9,0,0,0,.837.921c.558.244.968.609,1.057.477s-.422-.823-.422-.823l-1.471-.576" transform="translate(-1690.864 921.893)" fill="#ffb27d"/>
      <path id="path550" d="M1660.486-945.6l6.339,4.007a5.25,5.25,0,0,1-.888.972c-1.173.43-6.451.018-8.26-2.7l2.81-2.282" transform="translate(-1569.962 995.975)" fill="#fff"/>
      <path id="path552" d="M1660.07-881.94c.374,0,4.094-.258,4.094-.258a1.76,1.76,0,0,0,.122,1.012l-3.625.693-.744-.219.154-1.229" transform="translate(-1572.058 936.672)" fill="#f9ddbf"/>
      <path id="path554" d="M1562.26-877.613l6.2-.6s-.218,1.148.591,1.448l-6.84.5a1.073,1.073,0,0,1,.044-1.351" transform="translate(-1480.453 932.943)" fill="#f99746"/>
      <path id="path556" d="M1664.789-882.7l-4.193.323s.031-.145.109-.147,4.166-.3,4.166-.3l-.015.115-.067.008" transform="translate(-1572.694 937.258)" fill="#f99746"/>
      <path id="path558" d="M1667.433-867.347l3.693-.7-.034-.1-3.936.754.276.044" transform="translate(-1578.83 923.527)" fill="#f99746"/>
      <path id="path560" d="M1000.805-704.562h-.033a.351.351,0,0,1-.35-.36l.531-23.146,1.564-.183-1.334,23.332a.379.379,0,0,1-.378.358" transform="translate(-955.177 792.673)" fill="#77a4e5"/>
      <path id="path562" d="M859.764-704.562h-.033a.351.351,0,0,1-.35-.36l.531-23.146,1.564-.183-1.334,23.332a.38.38,0,0,1-.378.358" transform="translate(-823.25 792.673)" fill="#77a4e5"/>
      <path id="path564" d="M1229.736-704.562h.033a.351.351,0,0,0,.35-.36l-.531-23.146-1.564-.183,1.334,23.332a.38.38,0,0,0,.378.358" transform="translate(-1168.074 792.673)" fill="#77a4e5"/>
      <path id="path566" d="M849.279-1050.377v-15.861a5.038,5.038,0,0,1,5.024-5.053h11.361a5.038,5.038,0,0,1,5.024,5.053v16.467l-21.409-.606" transform="translate(-813.801 1113.546)" fill="#77a4e5"/>
      <path id="path568" d="M872.723-745.121H850.792a1.513,1.513,0,0,1-1.513-1.513v-.991h23.444v2.5" transform="translate(-813.801 810.794)" fill="#77a4e5"/>
      <path id="path570" d="M996.4-745.121H979.811a1.118,1.118,0,0,1-1.119-1.118v-.267a1.118,1.118,0,0,1,1.119-1.118H996.4a1.118,1.118,0,0,1,1.119,1.118v.267a1.118,1.118,0,0,1-1.119,1.118" transform="translate(-934.852 810.794)" fill="#77a4e5"/>
      <path id="path572" d="M1097.707-1161.957a4.444,4.444,0,0,0-1.157,2.907c-.157,1.593.948,13.96,1.78,14.943,2.34,2.765,5.272,1.6,6.42,2.016l1.083-.974s-3.81-2.811-4.1-3.729c-1.116-3.531-.424-13.829-4.026-15.163" transform="translate(-1045.08 1198.354)" fill="#f9ddbf"/>
      <path id="path574" d="M979.223-1359.348s.064-2.268-2.927-2.713-3.818.254-4.326,1.017a13.344,13.344,0,0,0-1.367,5.118c.1,1.24,3.507,2.772,3.452,3.5s5.168-6.918,5.168-6.918" transform="translate(-927.279 1385.658)" fill="#163560"/>
      <path id="path576" d="M1315.571-471c-.1.766.948.992,2.164,1.1s.839.347,2.5.716,2.344-.072,2.473-.3c.115-.2-.65-.547-1.464-.937-.1-.048-.206-.1-.308-.149a7.373,7.373,0,0,1-2.106-2.134,11.017,11.017,0,0,1-1.229-3.185l-2.251-.576s.561,2.174.749,3.1a2.888,2.888,0,0,1-.289,1.595,3.053,3.053,0,0,0-.236.769" transform="translate(-1249.754 557.156)" fill="#ffb27d"/>
      <path id="path578" d="M1320.885-401.944c1.217.107.839.347,2.5.716s2.344-.072,2.473-.3c.115-.2-.65-.547-1.464-.937l-.014.014a4.675,4.675,0,0,1-2.53-.062c-1.094-.346-2.137-1.057-2.891-1.3a3.058,3.058,0,0,0-.236.769c-.1.766.948.992,2.164,1.1" transform="translate(-1252.904 489.198)" fill="#233862"/>
      <path id="path580" d="M1010.2-906.185s15.05,1.561,17.531,3.866,2.039,23.767,2.039,23.767c-.386.4-.671.391-1.281.344a8.557,8.557,0,0,1-1.78-.55s-3.223-10.539-3.263-12.979-.55-6.581-1.574-6.826-13.208,1.123-14.543-2.726a8.3,8.3,0,0,1,.882-7.015l1.99,2.119" transform="translate(-961.24 961.091)" fill="#ed7d2b"/>
      <path id="path582" d="M940.794-1144.127a6.856,6.856,0,0,0,3.759,1.174c3.486.127,7.837-.289,8.693-1.1a1.472,1.472,0,0,0,.361-.993,23.022,23.022,0,0,0-.974-5.361,6.871,6.871,0,0,1-.313-2.728c.473-1.591,1.942-4.832,2.069-5.9s-1.144-6.773-2.9-7.479-8.541,0-8.541,0c-2.65.538-2.762,6.188-1.881,11,.023.124.046.247.07.369.954,4.883-2.153,9.8-.341,11.016" transform="translate(-898.862 1202.905)" fill="#f9ddbf"/>
      <path id="path584" d="M1017.413-1215.682c-.048.31-.9.813-2.709.335-1.737-.458-1.946-1.024-1.946-1.4a8.868,8.868,0,0,0,.745-3.76l.208.041,3.5.693s-.08,1.1-.082,2.141c0,.872.359,1.431.28,1.946" transform="translate(-966.717 1253.118)" fill="#ffb27d"/>
      <path id="path586" d="M1031.022-1219.17s-.08,1.1-.082,2.141c-1.96-.055-3-1.844-3.421-2.834l3.5.693" transform="translate(-980.524 1252.519)" fill="#ed975d"/>
      <path id="path588" d="M1023.924-1307.193s-4.638.077-4.641-2.812-.6-4.825,2.357-5,3.537.93,3.773,1.895-.283,5.819-1.489,5.913" transform="translate(-972.772 1341.525)" fill="#ffb27d"/>
      <path id="path590" d="M1002.166-1324.342s-1.27,3.389-3.219,3.89a3.836,3.836,0,0,1-2.794-.021,5.522,5.522,0,0,0,1.8-3.261s3.25-2.222,4.208-.608" transform="translate(-951.185 1350.796)" fill="#163560"/>
      <path id="path592" d="M1084.332-1319.581a4.092,4.092,0,0,1,1.179,1.492c.231.736.335,2.25.777,2.2,0,0,.957-2.3-.119-3.606-1.14-1.382-1.838-.084-1.838-.084" transform="translate(-1033.666 1346.309)" fill="#163560"/>
      <path id="path594" d="M1143.885-485.812c-.011.773,1.052.876,2.272.842s.872.248,2.561.424,2.321-.341,2.424-.58c.092-.211-.707-.468-1.559-.762l-.323-.113a7.334,7.334,0,0,1-2.33-1.878c-.743-.69.9-4.03.9-4.03l-2.149-1.063s-.407,2.384-.932,4.471c-.136.538-.578,1.427-.713,1.9a3.066,3.066,0,0,0-.149.792" transform="translate(-1089.371 572.596)" fill="#ffb27d"/>
      <path id="path596" d="M942.036-1017.927a6.149,6.149,0,0,0,3.666,1.749c3.215-.732,6.876-1.583,9.054-2.091a23.023,23.023,0,0,0-.974-5.361c-2.539.775-6.319-1.866-7.589-2.91-1.335-1.1-1.293-4.751-1.293-4.751l-2.686,2.554c.023.124.046.247.07.369.954,4.883-2.06,9.227-.249,10.441" transform="translate(-900.011 1076.131)" fill="#f2ccaa"/>
      <path id="path598" d="M1146.158-392.779c1.22-.034.872.248,2.561.424s2.321-.341,2.424-.58c.092-.211-.707-.468-1.559-.762l-.012.015a4.683,4.683,0,0,1-2.521.23c-1.125-.218-2.241-.8-3.017-.961a3.081,3.081,0,0,0-.149.792c-.011.773,1.052.876,2.272.842" transform="translate(-1089.371 480.405)" fill="#233862"/>
      <path id="path600" d="M939.758-874.935c3.821-.109,15.233.8,17.426,2.455,2.7,2.035-5.011,24.038-5.011,24.038a10.008,10.008,0,0,1-1.179.054,3.782,3.782,0,0,1-1.723-.512s.03-12.95.931-15.428c.832-2.288,1.342-3.1.3-3.235s-14.057,1.523-15.143-2.405a9.733,9.733,0,0,1,.405-5.909s.47,1.042,3.995.943" transform="translate(-894.043 930.76)" fill="#f99746"/>
      <path id="path602" d="M929.817-1162.074s-2.654.225-2.861,2.323c-.157,1.593-1.311,12.892-.48,13.875,2.34,2.765,10.141,3.351,11.289,3.771l.316-1.308s-8.328-4.2-8.2-5.149,2.482-13.889-.063-13.512" transform="translate(-885.731 1198.471)" fill="#f9ddbf"/>
      <path id="path604" d="M964.736-1364.715s.19-1.21-1.488-1.522-1.71,3.252-1.89,4.112.268,1.374.909,1.426,2.469-4.016,2.469-4.016" transform="translate(-918.601 1389.452)" fill="#163560"/>
      <path id="path606" d="M1101.533-881.841a11.6,11.6,0,0,1,2.937-.514c.565.157,2.5,1.439,2.228,1.787s-1.977-.208-2.762-.1-1.391.492-1.956.408a6.539,6.539,0,0,1-1.156-.306l.709-1.272" transform="translate(-1049.092 936.841)" fill="#ffb27d"/>
      <path id="path608" d="M1111.795-887.986a8.879,8.879,0,0,0,1.49-.936.093.093,0,0,1,.144.017c.089.14.171.408-.236.676a2.186,2.186,0,0,1-1.4.242" transform="translate(-1059.354 942.986)" fill="#ffb27d"/>
      <path id="path610" d="M1224.754-869.585a11.606,11.606,0,0,1,2.945.467c.484.332,1.9,2.172,1.528,2.413s-1.8-.839-2.579-.994-1.476.015-1.983-.248a6.515,6.515,0,0,1-.994-.664l1.083-.974" transform="translate(-1164.001 924.874)" fill="#ffb27d"/>
      <path id="path612" d="M829.114-432.629H819.1c-.482-.588-.3-2.757-.231-3.465.015-.143.025-.226.025-.226s3.42-2.735,3.889-.641c.014.066.032.13.051.193.592,1.959,3.246,2.85,4.779,3.1a1.736,1.736,0,0,1,1.5,1.042" transform="translate(-785.269 520.943)" fill="#1b3051"/>
      <path id="path614" d="M464.815-862.078c.362,0,17.154,3.152,19.932,6.591,1.388,1.718,1.594,21.554,1.594,21.554s-1.717,2.129-5.424.893c0,0-2.718-13.572-2.518-17.688.055-1.138-11.473-.165-13.584-.711s-7.266-5.137-6.13-7.372,6.13-3.266,6.13-3.266" transform="translate(-448.294 917.852)" fill="#233862"/>
      <path id="path616" d="M737.519-876.5a6.191,6.191,0,0,0,2.177,1.189,9.89,9.89,0,0,1,1.6.487c1,.457,2.889,2.5,2.713,2.7-.564.651-2.836-1.045-3.27-.925s.713,1.105.258,1.373c-.238.14-.686-.712-1.1-.831-.567-.162-.943-1.018-1.113-1.077a13.541,13.541,0,0,1-1.71-1.351l.452-1.568" transform="translate(-708.84 931.346)" fill="#ffb27d"/>
      <path id="path618" d="M897.609-432.629H887.595c-.482-.588-.3-2.757-.231-3.465.015-.143.025-.226.025-.226s3.42-2.735,3.889-.641c.014.066.032.13.051.193.592,1.959,3.246,2.85,4.779,3.1a1.736,1.736,0,0,1,1.5,1.042" transform="translate(-849.338 520.943)" fill="#1e3c68"/>
      <path id="path620" d="M541.4-862.078c.362,0,17.154,3.152,19.932,6.591,1.388,1.718,1.594,21.554,1.594,21.554s-1.717,2.129-5.424.893c0,0-2.718-13.572-2.518-17.688.055-1.138-11.473-.165-13.584-.711s-7.266-5.137-6.13-7.372,6.13-3.266,6.13-3.266" transform="translate(-519.927 917.852)" fill="#2b478b"/>
      <path id="path622" d="M535.832-1307.908a16.325,16.325,0,0,1-3.569-.777c-1.368-.444-2.471-1.093-1.761-2.344a12.884,12.884,0,0,0,1.644-5.861l2.546,2.052,1.73,1.393a20.737,20.737,0,0,1-.2,2.262c-.035.262-.075.545-.123.849a.617.617,0,0,0,.284.619l.039.024a.966.966,0,0,1-.594,1.782" transform="translate(-515.414 1343.276)" fill="#ffb27d"/>
      <path id="path624" d="M581.222-1284.326a4.206,4.206,0,0,1-.063,1.4,7.232,7.232,0,0,1-2.984-1.482c.785-.215,1.071-1.064,1.655-.985l1.392,1.067" transform="translate(-560.214 1313.818)" fill="#ed975d"/>
      <path id="path626" d="M544.7-1406.979s-5.932.986-6.488-2.717-1.7-6.07,2.066-6.856,4.714.516,5.2,1.708.751,7.514-.778,7.866" transform="translate(-522.266 1436.722)" fill="#ffb27d"/>
      <path id="path628" d="M527.327-1427.885a2.072,2.072,0,0,1-1.571,2.335c-1.7.531-1.323,2.615-2.088,2.586s-1.073-1.2-1.755-.264c-.582.8.485,1.742.411,2.179-.126.75-1.3,2.286-2.36,2.208s-3.041-5.11-2.644-6.667a4.938,4.938,0,0,1,3.482-3.426,16.362,16.362,0,0,1,4.065.421c.481,0,2.323.144,2.46.626" transform="translate(-503.243 1448.123)" fill="#2b478b"/>
      <path id="path630" d="M450.092-1218.608c-.1.855-.279,1.436-.562,1.625-.884.593-2.057,1.329-3.365,2.058-4.64,2.587-10.992,5.084-12.284.712-1.518-5.136-.521-14.779.968-20.769.857-3.45,3.227-7.072,4.829-7.068,2.73.005,6.654.725,8.239,4.634.613,1.515,1.515,6.762,1.975,11.569a39.8,39.8,0,0,1,.2,7.239" transform="translate(-424.537 1273.272)" fill="#fff"/>
      <path id="path632" d="M530.279-1261.7l.618-1.393s5.48.558,6.41,3.707c0,0-4.236-2.247-7.028-2.314" transform="translate(-515.413 1292.952)" fill="#dfebfd"/>
      <path id="path634" d="M562.354-998.981c-.1.855-.279,1.436-.562,1.625-.884.593-2.057,1.329-3.365,2.058-1.365-.831-4.169-2.811-4.824-5.145a18.641,18.641,0,0,1-.256-6.808l9.008,8.27" transform="translate(-536.799 1053.645)" fill="#dfebfd"/>
      <path id="path636" d="M547.484-1182.823s.475,13.117,1.221,15.71c1.272,4.423,12.873,6,12.873,6a2.375,2.375,0,0,0,.378-2.062s-6.936-5.466-7.138-6.507,1.511-8.093-.448-10.657-5.571-4.787-6.887-2.482" transform="translate(-531.507 1218.775)" fill="#fff"/>
      <path id="path638" d="M314.217-669.775h-.038a.519.519,0,0,1-.524-.555l2.084-20.814,1.819.162-2.993,20.926a.339.339,0,0,1-.348.282" transform="translate(-312.785 757.964)" fill="#77a4e5"/>
      <path id="path640" d="M480.234-669.775H480.2a.519.519,0,0,1-.524-.555l2.084-20.814,1.819.162-2.993,20.926a.339.339,0,0,1-.348.282" transform="translate(-468.074 757.964)" fill="#77a4e5"/>
      <path id="path642" d="M751.729-669.775h.038a.519.519,0,0,0,.524-.555l-2.084-20.814-1.819.162,2.993,20.926a.338.338,0,0,0,.348.282" transform="translate(-719.43 757.964)" fill="#77a4e5"/>
      <path id="path644" d="M302.245-1068.65l-1.978-17.385c-.259-2.5.579-4.958,4.194-5.148l6.36-.388c3.77-.155,5.472,2.982,5.949,5.4l3.776,19.109-18.3-1.586" transform="translate(-300.223 1132.521)" fill="#77a4e5"/>
      <path id="path646" d="M333.032-734.667h28.228a1.034,1.034,0,0,0,1.031-1.031v-1.269A1.034,1.034,0,0,0,361.259-738H332v2.3a1.034,1.034,0,0,0,1.031,1.031" transform="translate(-329.947 801.79)" fill="#77a4e5"/>
      <path id="path648" d="M332.8-734.667h16.667a.8.8,0,0,0,.8-.8V-737.2a.8.8,0,0,0-.8-.8H332v2.531a.8.8,0,0,0,.8.8" transform="translate(-329.947 801.79)" fill="#77a4e5"/>
      <path id="path654" d="M870.485-1714.173h-9.772a.818.818,0,0,1-.816-.816v-9.431a.818.818,0,0,1,.816-.816h9.772a.818.818,0,0,1,.816.816v9.431a.818.818,0,0,1-.816.816" transform="translate(-823.734 1725.236)" fill="#77a4e5"/>
      <path id="path656" d="M877.213-1707.717h-8.925a.748.748,0,0,1-.745-.745v-8.615a.748.748,0,0,1,.745-.745h8.925a.748.748,0,0,1,.745.745v8.615a.748.748,0,0,1-.745.745" transform="translate(-830.885 1718.301)" fill="#dfebfd"/>
      <path id="path658" d="M944.479-1705.613a.236.236,0,0,1,.236-.236.236.236,0,0,1,.236.236.236.236,0,0,1-.236.237.236.236,0,0,1-.236-.237" transform="translate(-902.85 1707.102)" fill="#77a4e5"/>
      <path id="path660" d="M973.544-1698.783a.237.237,0,0,1,.321-.092.236.236,0,0,1,.092.321.236.236,0,0,1-.321.092.237.237,0,0,1-.092-.321" transform="translate(-930.009 1700.606)" fill="#77a4e5"/>
      <path id="path662" d="M997.68-1677.49a.236.236,0,0,1,.327.071.236.236,0,0,1-.07.327.237.237,0,0,1-.327-.071.236.236,0,0,1,.07-.327" transform="translate(-952.512 1680.61)" fill="#77a4e5"/>
      <path id="path664" d="M1008.344-1645.876a.236.236,0,0,1,.236.236.237.237,0,0,1-.236.237.237.237,0,0,1-.236-.237.236.236,0,0,1,.236-.236" transform="translate(-962.367 1651.004)" fill="#77a4e5"/>
      <path id="path666" d="M999.535-1610.81a.236.236,0,0,1,0,.334.236.236,0,0,1-.334,0,.236.236,0,0,1,0-.334.236.236,0,0,1,.334,0" transform="translate(-953.971 1618.269)" fill="#77a4e5"/>
      <path id="path668" d="M976.581-1587.8a.237.237,0,0,1,0,.334.236.236,0,0,1-.334,0,.236.236,0,0,1,0-.334.236.236,0,0,1,.334,0" transform="translate(-932.5 1596.743)" fill="#77a4e5"/>
      <path id="path670" d="M944.479-1578.347a.236.236,0,0,1,.236-.236.236.236,0,0,1,.236.236.236.236,0,0,1-.236.236.236.236,0,0,1-.236-.236" transform="translate(-902.85 1588.059)" fill="#77a4e5"/>
      <path id="path672" d="M915.767-1698.783a.237.237,0,0,0-.321-.092.236.236,0,0,0-.092.321.236.236,0,0,0,.321.092.236.236,0,0,0,.092-.321" transform="translate(-875.579 1700.606)" fill="#77a4e5"/>
      <path id="path674" d="M891.632-1677.49a.236.236,0,0,0-.327.071.236.236,0,0,0,.07.327.237.237,0,0,0,.327-.071.236.236,0,0,0-.07-.327" transform="translate(-853.077 1680.61)" fill="#77a4e5"/>
      <path id="path676" d="M880.969-1645.876a.236.236,0,0,0-.236.236.236.236,0,0,0,.236.237.236.236,0,0,0,.236-.237.236.236,0,0,0-.236-.236" transform="translate(-843.222 1651.004)" fill="#77a4e5"/>
      <path id="path678" d="M889.777-1610.81a.236.236,0,0,0,0,.334.236.236,0,0,0,.334,0,.236.236,0,0,0,0-.334.236.236,0,0,0-.334,0" transform="translate(-851.618 1618.269)" fill="#77a4e5"/>
      <path id="path680" d="M912.732-1587.8a.236.236,0,0,0,0,.334.236.236,0,0,0,.334,0,.236.236,0,0,0,0-.334.236.236,0,0,0-.334,0" transform="translate(-873.089 1596.743)" fill="#77a4e5"/>
      <path id="path682" d="M947.148-1645.64a.236.236,0,0,1,.236-.236.236.236,0,0,1,.236.236.237.237,0,0,1-.236.237.237.237,0,0,1-.236-.237" transform="translate(-905.346 1651.004)" fill="#77a4e5"/>
      <path id="path684" d="M950.369-1684.938H950.3v-2.951h.065v2.951" transform="translate(-908.298 1690.302)" fill="#77a4e5"/>
      <path id="path686" d="M949.538-1661.082l-.12-.153,1.564-1.228.12.152-1.564,1.228" transform="translate(-907.47 1666.519)" fill="#77a4e5"/>
    </g>
  </g>
</svg>
