<svg xmlns="http://www.w3.org/2000/svg" width="23.849" height="23.814" viewBox="0 0 23.849 23.814">
  <g id="Create" transform="translate(0 0)">
    <path id="Path_3563" data-name="Path 3563" d="M105.247,123.192a.851.851,0,0,0,.6.251.806.806,0,0,0,.217-.03.85.85,0,0,0,.209.03h13.2a.852.852,0,1,0,0-1.7H111.52l14.02-14.024-4.817-4.817L106.63,116.987a.877.877,0,0,0-.217.375l-1.388,5a.851.851,0,0,0,.221.826Z" transform="translate(-104.995 -99.629)" fill="#fff"/>
    <path id="Path_3564" data-name="Path 3564" d="M459.28,38.623l-2.41-2.41a1.7,1.7,0,0,0-2.406,0L452.9,37.78l4.817,4.817,1.567-1.567h0a1.7,1.7,0,0,0,0-2.406Z" transform="translate(-435.963 -35.715)" fill="#fff"/>
    <path id="Path_3565" data-name="Path 3565" d="M477.611,490h-4.259a.852.852,0,1,0,0,1.7h4.259a.852.852,0,1,0,0-1.7Z" transform="translate(-454.613 -467.889)" fill="#fff"/>
  </g>
</svg>
