<svg xmlns="http://www.w3.org/2000/svg" width="11" height="16.004" viewBox="0 0 11 16.004">
  <path id="Question" d="M7.315,0a6.056,6.056,0,0,0-5.38,2.845A.751.751,0,0,0,2.1,3.873L3.445,4.9a.75.75,0,0,0,1.039-.13A3.033,3.033,0,0,1,7.071,3.22c.962,0,2.151.619,2.151,1.551,0,.7-.582,1.067-1.531,1.6C6.584,6.991,5.118,7.764,5.118,9.7V10a.75.75,0,0,0,.75.75H8.134a.75.75,0,0,0,.75-.75v-.18c0-1.34,3.916-1.4,3.916-5.021C12.8,2.071,9.968,0,7.315,0ZM7,11.674a2.165,2.165,0,1,0,2.165,2.165A2.168,2.168,0,0,0,7,11.674Z" transform="translate(-1.8)" fill="#1492e6"/>
</svg>
