<svg xmlns="http://www.w3.org/2000/svg" width="18.389" height="18.389" viewBox="0 0 18.389 18.389">
  <path id="Icon_awesome-check-circle" data-name="Icon awesome-check-circle" d="M18.951,9.757A9.194,9.194,0,1,1,9.757.563,9.194,9.194,0,0,1,18.951,9.757ZM8.693,14.625,15.515,7.8a.593.593,0,0,0,0-.839l-.839-.839a.593.593,0,0,0-.839,0L8.274,11.689l-2.6-2.6a.593.593,0,0,0-.839,0L4,9.931a.593.593,0,0,0,0,.839l3.856,3.856a.593.593,0,0,0,.839,0Z" transform="translate(-0.563 -0.563)" fill="#27c397"/>
</svg>
